<svg width="700" height="700" viewBox="0 0 700 700" fill="none" xmlns="http://www.w3.org/2000/svg">
<g filter="url(#filter0_d_524_7616)">
<g clip-path="url(#clip0_524_7616)">
<rect x="170" y="170" width="360" height="360" rx="180" fill="white"/>
<path d="M283.079 292.14C293.026 280.61 302.824 296.587 307.496 305.253C311.476 305.976 314.505 293.045 316.766 286.262C321.061 283.549 328.781 277.219 331.688 273.827C334.401 270.662 343.896 257.549 349.774 248.732C355.345 240.376 363.792 235.618 367.409 234.94C371.027 234.261 375.774 234.035 381.653 234.94C386.355 235.663 388.963 236.674 389.566 237.201C391.374 236.839 393.56 236.824 394.54 236.748C408.331 238.105 416.47 256.871 417.827 265.235C419.109 273.145 420.766 282.192 419.409 290.783C419.09 292.805 420.314 302.766 421.218 316.105C421.941 326.776 416.847 339.09 414.209 343.914C396.122 375.34 385.27 382.348 381.653 384.157C378.759 385.604 369.595 383.554 365.374 382.348C356.783 380.314 347.288 373.984 341.861 370.366C335.079 365.845 326.94 358.609 321.966 352.279C317.987 347.215 312.319 336.302 309.983 331.479L307.497 334.644C306.065 336.151 301.528 338.262 294.835 334.644C288.143 331.027 283.154 322.586 281.497 318.818C279.16 313.844 274.996 301.509 283.079 292.14Z" fill="#E89B6C"/>
<path d="M368.765 357.029C371.403 357.782 378.035 358.928 383.461 357.481C380.899 358.988 374.372 361.008 368.765 357.029Z" fill="#C96E45"/>
<path d="M368.312 341.881C365.96 342.242 359.042 342.031 355.877 341.881C355.5 342.182 354.837 342.92 355.199 343.463C355.651 344.141 364.016 351.602 366.051 352.732C368.086 353.863 373.286 357.932 382.781 356.124C390.378 354.677 393.935 346.779 394.764 343.011C395.065 342.935 395.397 342.83 394.312 343.011C392.955 343.237 385.946 341.202 383.912 341.881C381.877 342.56 378.033 342.559 376.677 341.881C375.32 341.202 371.251 341.429 368.312 341.881Z" fill="#C8654B"/>
<path d="M378.261 346.854C369.398 346.854 356.933 342.483 351.809 340.298C354.748 343.689 361.757 346.176 372.835 348.437C383.913 350.698 394.539 344.82 396.348 343.463C397.795 342.378 396.951 341.956 396.348 341.88C394.012 343.538 387.124 346.854 378.261 346.854Z" fill="#AD5431"/>
<path d="M387.532 330.576C382.829 331.842 381.955 333.514 382.106 334.192C390.923 332.609 393.41 328.54 393.862 326.505C394.314 324.47 393.184 320.401 391.828 317.009C390.471 313.618 388.265 304.662 386.683 295.618C385.416 288.383 389.492 282.418 391.15 281.287C391.828 280.157 387.532 282.645 385.497 291.689C383.377 301.111 390.245 319.723 390.923 321.08C391.601 322.436 393.41 328.993 387.532 330.576Z" fill="#AD5130"/>
<path d="M371.703 328.312C368.99 328.674 369.366 324.092 369.894 321.755C367.18 323.789 367.633 327.86 368.312 329.442C368.99 331.025 371.703 331.704 375.546 333.287C378.622 334.553 381.651 334.266 382.781 333.965C380.973 333.061 385.043 332.609 389.79 329.896C394.538 327.182 390.695 320.173 391.146 322.434C391.359 323.498 391.146 325.373 391.146 326.051C390.694 328.312 386.399 328.312 384.59 327.86C382.781 327.408 375.094 327.86 371.703 328.312Z" fill="#D67C4F"/>
<path d="M380.522 329.219C378.17 328.495 374.568 329.52 373.061 330.123C373.739 330.123 374.417 330.801 376.226 331.027C377.673 331.208 380.145 331.404 381.2 331.48C381.954 331.027 382.873 329.942 380.522 329.219Z" fill="#AD5332"/>
<path d="M363.565 296.888C358.32 300.325 351.432 300.581 348.644 300.279C355.336 299.013 355.2 294.175 354.296 291.914C357.913 292.276 361.983 295.381 363.565 296.888Z" fill="#E2B08C"/>
<path d="M412.4 296.661C408.783 301.545 402.301 302.012 399.513 301.635C402.226 300.957 403.583 300.279 404.939 298.018C406.024 296.209 405.391 293.496 404.939 292.366C409.28 292.908 411.722 295.456 412.4 296.661Z" fill="#E4B18D"/>
<path d="M387.757 300.958C390.832 291.733 400.192 283.85 404.488 281.062C402.679 281.062 396.349 283.323 393.183 284.001C390.651 284.544 390.018 282.871 390.018 281.966C384.592 289.201 386.627 297.34 387.757 300.958Z" fill="#D87E51"/>
<path d="M392.504 279.706C390.334 281.153 390.243 282.72 390.469 283.323C392.052 284.68 392.504 284.001 393.409 284.001C394.313 284.001 402.904 281.062 406.07 280.383C408.602 279.841 412.551 279.705 414.209 279.706C418.73 279.706 420.087 282.644 420.087 281.966C420.087 281.288 420.087 278.575 416.922 276.54C413.757 274.506 406.748 274.958 404.487 275.41C402.226 275.862 395.217 277.897 392.504 279.706Z" fill="#30211B"/>
<path d="M338.017 274.732C332.23 277.264 328.522 281.364 327.391 283.097C331.913 279.932 336.887 278.576 343.444 278.124C350 277.672 360.626 281.289 363.791 282.193C366.324 282.917 369.067 283.097 370.122 283.097C371.102 282.721 372.744 281.425 371.478 279.254C369.896 276.541 356.331 273.602 354.974 273.376C353.617 273.15 345.252 271.567 338.017 274.732Z" fill="#31231D"/>
<path d="M366.957 239.915C372.925 237.383 384.215 236.9 389.113 236.976C387.485 235.71 382.406 234.79 380.07 234.489C365.6 232.68 358.365 239.463 356.331 241.045C354.296 242.628 350.226 247.15 346.157 254.158C342.901 259.765 335.606 269.306 332.365 273.376C326.758 279.887 319.177 284.831 316.087 286.489L315.409 289.88C320.383 287.393 329.652 278.802 331.235 277.445C332.817 276.089 341.183 264.106 342.539 262.297C343.896 260.489 351.809 250.541 354.522 248.28C357.235 246.019 359.496 243.08 366.957 239.915Z" fill="#D67B4F"/>
<path d="M390.47 298.245C391.374 296.511 393.59 292.683 397.026 291.236C401.322 289.427 403.809 289.427 405.617 289.653C407.426 289.88 413.531 292.14 416.922 295.984C416.846 296.587 416.063 297.747 413.531 297.566C413.003 296.813 411.315 295.034 408.783 293.949C406.593 293.01 405.147 294.033 403.48 293.742C403.725 293.878 403.324 294.333 402.878 293.802C402.609 293.9 402.248 294.085 401.774 294.401C399.061 296.21 401.096 294.326 400.417 293.949C399.438 293.873 395.263 299.782 394.539 295.984C393.936 296.21 392.278 296.979 390.47 298.245Z" fill="#1D1611"/>
<path d="M343.67 292.368C343.368 292.444 342.087 292.956 339.374 294.403C337.126 295.602 335.189 296.056 333.948 295.662C335.229 294.338 338.651 291.283 342.087 289.655C345.524 288.027 350.603 288.223 352.713 288.525C360.671 290.876 364.017 295.081 364.696 296.89C363.791 296.739 361.531 296.031 359.722 294.403C357.913 292.775 355.351 292.368 354.296 292.368C355.381 298.518 353.391 293.273 350.452 296.89C351.131 293.273 349.819 294.358 348.191 293.273C346.564 292.188 343.519 293.951 343.67 292.368Z" fill="#1E1513"/>
<path d="M410.365 288.524C402.226 283.46 395.519 288.675 393.183 291.916C402.769 282.33 413.154 290.182 417.148 295.306C415.339 292.593 411.873 289.655 410.365 288.524Z" fill="#A74D2E"/>
<path d="M345.93 286.261C340.866 287.527 335.229 292.667 333.044 295.079L333.722 295.304C339.6 290.104 341.183 289.426 345.93 287.391C349.729 285.764 354.296 286.412 356.104 286.939C359.36 287.482 362.284 291.084 363.339 292.818C360.626 284.452 352.261 284.679 345.93 286.261Z" fill="#A84E2E"/>
<path d="M292.346 305.256C289.091 306.522 288.503 313.62 290.085 317.238C294.155 323.342 301.088 324.246 303.877 323.568C303.048 323.267 301.797 322.392 299.807 320.403C297.32 317.916 297.32 314.977 298.451 312.942C299.355 311.314 298.978 309.099 298.451 308.421C297.923 306.989 295.602 303.99 292.346 305.256Z" fill="#D67A4D"/>
<path d="M288.504 295.305C286.515 295.848 284.661 299.45 283.983 301.184C285.791 298.698 287.826 297.565 290.765 298.244C293.117 298.786 294.458 301.635 294.835 302.992C293.102 302.539 289.409 302.72 288.504 307.061C287.6 311.402 289.183 315.652 290.087 317.235C288.504 312.487 289.635 307.965 291.67 306.157C293.297 304.71 295.212 305.252 295.965 305.705C296.794 306.534 298.543 308.689 298.904 310.679C299.357 313.165 295.739 314.974 298.904 319.496C301.437 323.113 303.275 323.867 303.878 323.792C304.602 322.525 302.22 319.797 300.939 318.592C300.261 318.215 299.176 316.828 300.261 314.296C301.617 311.131 300.487 308.192 299.809 307.061C299.131 305.931 295.965 300.279 295.739 299.827C295.513 299.375 290.991 294.627 288.504 295.305Z" fill="#BC6239"/>
<ellipse cx="300.487" cy="329.897" rx="3.61739" ry="3.61739" fill="#D9D9D9"/>
<path d="M349.546 342.784C349.546 342.423 351.807 340.222 352.938 339.167C352.41 339.016 351.084 338.896 349.999 339.619C348.642 340.524 349.546 343.237 349.546 342.784Z" fill="#AD5130"/>
<path d="M333.948 364.036C324.907 357.01 313.267 338.872 309.983 331.479L309.304 331.932L311.339 338.714C313.802 345.876 322.202 360.61 323.322 362.227C324.678 364.187 332.817 376.923 349.322 386.193C362.019 393.324 375.819 394.202 380.522 393.201C380.343 391.723 380.522 388.079 380.07 384.836C357.235 381.897 348.303 375.192 333.948 364.036Z" fill="#CB6F44"/>
<path d="M310.187 330.349C310.219 330.771 310.251 331.217 310.283 331.685C311.054 338.966 316.41 355.51 333.257 373.312C351.232 392.306 372.332 394.332 380.296 392.975V399.306C350 411.288 319.931 394.332 308.852 383.027C311.826 364.405 311.007 342.265 310.283 331.685C310.231 331.197 310.2 330.751 310.187 330.349Z" fill="#E99A6A"/>
<path d="M429.583 424.732C416.922 421.668 402.754 414.742 397.253 411.662C390.994 406.315 389.818 398.104 389.137 393.346L389.114 393.184C388.571 389.398 382.557 385.823 380.297 385.071V399.268C363.34 406.029 352.94 403.099 339.149 400.17C328.116 397.826 314.506 387.776 309.08 383.043L309.984 374.255C301.845 373.579 300.941 380.565 300.941 382.593C300.941 384.621 296.871 394.311 291.897 401.296C286.923 408.282 267.932 418.423 258.436 422.479C248.941 426.535 239.671 433.07 241.48 432.169C242.927 431.448 248.112 430.817 250.297 430.591C264.089 432.619 271.323 452.901 274.715 463.717C278.106 474.534 279.236 499.322 279.01 502.477C278.829 505.001 276.975 527.715 276.071 538.757C283.306 562.869 287.828 582.475 288.732 590.362C289.455 596.671 291.971 610.719 289.409 616.729H425.513H441.792C441.792 616.729 440.209 602.681 440.209 599.15C439.305 571.433 449.705 553.63 454 540.56C458.296 527.49 457.165 513.744 455.131 506.308C453.503 500.358 447.519 485.2 444.731 478.365C445.861 445.69 438.4 432.394 437.722 429.69C437.18 427.527 431.919 425.634 429.583 424.732Z" fill="#403A38"/>
<path d="M301.165 381.381C302.431 374.345 307.571 373.789 309.983 374.39L308.852 382.959C313.534 387.83 324.217 393.858 328.974 396.264C354.296 407.629 373.89 402.277 380.522 398.519L380.296 384.989L381.426 385.665C384.501 386.387 387.531 389.875 388.661 391.979C388.842 399.195 393.861 408.215 396.348 411.823C395.067 418.588 385.179 432.388 355.878 433.471C326.577 434.553 301.316 415.732 292.348 406.186C283.304 414.845 261.299 424.526 251.426 428.284C264.991 428.735 274.487 454.216 277.878 465.942C280.591 475.323 282.023 497.061 282.4 506.757C287.464 499.181 289.484 486.011 289.861 480.374C292.8 494.129 283.304 515.777 281.722 519.611C280.139 523.444 293.026 563.357 296.417 578.24C299.131 590.146 295.287 608.757 293.026 616.574H282.4C281.891 616.211 283.04 613.099 286.542 603.622L286.922 602.593C291.67 589.74 286.017 574.632 284.887 569.22C283.983 564.89 278.632 546.37 276.07 537.65C279.461 504.051 280.139 491.874 276.522 471.805C273.628 455.75 266.122 443.167 262.731 438.883C257.124 428.6 246.226 430.088 241.704 432.118C247.13 427.247 256.325 423.323 260.244 421.97C278.557 415.431 288.278 405.058 291.217 402.127C294.157 399.195 299.583 390.175 301.165 381.381Z" fill="#24221F"/>
<path d="M458.07 444.241C453.548 436.132 441.339 430.507 436.365 428.02C438.626 430.723 442.922 446.147 444.052 457.185C444.957 466.016 444.881 475.179 444.504 478.708L447.67 486.818C458.522 511.148 456.713 523.675 456.261 529.307C455.809 534.939 451.75 549.502 444.052 568.143C437.496 584.02 440.133 606.815 441.339 616.577H480C475.93 606.665 471.635 561.159 471.409 559.357C471.183 557.555 469.374 518.807 469.374 504.39C469.374 489.972 466.209 466.544 465.983 464.741C465.757 462.939 463.722 454.379 458.07 444.241Z" fill="#EA9C6B"/>
<path d="M446.765 489.062C444.776 483.997 438.701 464.192 435.913 454.922C438.626 459.986 442.168 468.94 443.6 472.784C444.143 470.252 444.278 464.494 444.278 461.931C444.957 451.983 436.591 426.888 437.27 428.696C437.948 430.505 441.113 440.453 443.6 451.531C446.087 462.609 443.826 474.366 444.957 478.888C446.087 483.409 453.774 502.401 455.357 507.601C456.939 512.801 457.844 524.105 456.487 529.757C455.13 535.409 451.965 546.262 444.957 566.157C439.35 582.074 439.606 600.824 440.435 608.209C437.044 589.896 439.757 571.809 443.826 560.279L443.989 559.818C448.027 548.376 452.894 534.59 454.678 524.105C456.487 513.479 449.252 495.392 446.765 489.062Z" fill="#2A2725"/>
<path d="M265.442 294.629C267.613 307.471 278.706 319.574 283.981 324.021C277.651 312.265 279.008 303.446 279.912 298.924C280.816 294.403 284.208 289.203 287.599 288.524C290.99 287.846 293.929 289.203 297.547 292.142C300.441 294.493 305.385 301.864 307.495 305.255C312.243 305.481 316.312 286.942 316.538 286.49C316.764 286.038 320.608 284.229 328.747 276.768C336.886 269.307 346.834 252.803 347.512 251.898C348.19 250.994 355.199 237.655 368.086 234.942C378.396 232.771 386.701 235.545 389.564 237.203C393.634 236.751 397.703 234.942 407.425 244.664C417.117 254.356 419.394 273.71 419.856 277.637L419.86 277.672C420.312 281.516 419.634 286.038 419.408 291.238C419.227 295.398 420.387 304.275 420.99 308.194C438.625 298.246 437.721 278.124 437.947 276.09C438.173 274.055 437.495 258.003 430.712 240.142C423.93 222.281 416.243 214.82 409.912 209.846C404.848 205.867 394.84 203.817 390.469 203.29C383.686 195.151 364.016 190.856 361.756 190.629C359.495 190.403 347.512 187.69 325.808 195.603C304.103 203.516 288.729 225.221 286.921 227.934C285.112 230.647 274.938 246.247 270.868 255.29C266.799 264.334 262.729 278.577 265.442 294.629Z" fill="#1E1513"/>
<path d="M279.687 497.428C279.868 477.894 273.281 458.39 269.965 451.08C260.244 425.985 246.226 430.28 244.417 430.732C242.609 431.185 236.504 434.35 228.139 446.559C219.774 458.767 220.678 496.072 220.678 501.272C220.678 506.472 221.357 559.15 220.678 566.159C220.136 571.766 220 602.408 220 616.802L244.87 617.028L269.739 616.802C268.157 606.628 270.417 585.15 271.322 575.654C272.226 566.159 279.461 521.846 279.687 497.428Z" fill="#E99A6A"/>
<path d="M398.383 208.716C407.351 210.901 426.191 223.185 429.809 254.838C427.322 243.156 417.555 217.578 398.383 208.716Z" fill="#0A0A0A"/>
<path d="M346.383 200.575C358.614 197.219 384.499 196.653 391.171 220.833C391.27 221.125 391.336 221.383 391.374 221.602C391.308 221.343 391.24 221.086 391.171 220.833C390.28 218.209 386.76 212.765 377.809 206.906C367.861 200.395 352.713 199.973 346.383 200.575Z" fill="#0A0A0A"/>
<path d="M266.122 286.49C263.228 303.311 277.652 319.424 284.887 324.925C281.722 319.499 279.235 311.586 279.009 306.16C278.783 300.734 280.365 290.334 288.957 288.751C297.548 287.168 303.652 301.412 307.496 305.029C310.57 307.923 314.806 293.725 316.539 286.264C325.583 280.16 325.583 279.708 331.235 274.282C336.887 268.855 350.452 247.377 351.583 246.247C352.713 245.116 359.044 235.621 369.67 234.49C378.171 233.586 387.832 236.073 389.565 237.203C395.172 236.299 398.835 237.58 399.965 238.334C416.47 247.829 419.183 271.342 419.635 274.282C420.087 277.221 420.087 285.812 419.635 292.368C419.273 297.614 420.539 304.803 421.217 307.742C430.261 293.499 428 275.638 421.217 254.838C415.791 238.198 404.487 229.968 399.287 227.934C398.383 223.05 394.991 217.76 393.409 215.725C396.845 225.492 394.841 232.606 393.409 234.942C391.374 232.832 387.124 228.476 386.4 227.934C385.496 227.255 375.096 220.699 361.757 230.873C348.417 241.047 347.965 250.09 331.235 269.082C317.85 284.275 299.884 283.25 292.574 280.838C304.33 276.542 318.122 260.49 325.583 250.768C333.044 241.047 337.627 231.325 352.261 221.377C363.968 213.419 375.527 214.745 379.844 216.403C361.531 208.49 344.8 220.021 327.617 243.76C313.871 262.751 293.554 274.885 285.113 278.577C295.784 270.981 304.029 254.461 306.817 247.151C302.477 251.854 294.91 257.551 291.67 259.812C291.85 249.503 304.406 231.853 310.661 224.316C295.287 233.36 279.009 253.482 277.2 255.969C275.391 258.456 269.74 265.464 266.122 286.49Z" fill="#0A0A0A"/>
<path d="M310.887 353.861C311.249 336.497 310.133 331.855 309.531 331.704H309.078C308.325 333.513 306.184 336.859 301.844 336.678C297.503 336.497 292.423 333.287 290.991 331.93C291.067 333.965 293.026 340.205 297.548 346.174C302.07 352.142 308.325 353.785 310.887 353.861Z" fill="#1E1513"/>
<path d="M310.889 359.742C310.889 354.09 310.812 338.792 310.209 331.934C310.571 335.189 311.944 339.847 312.923 342.334V365.847C312.923 370.007 311.265 380.241 310.436 384.386L309.532 383.481C308.856 383.481 309.139 381.012 309.532 378.055C309.984 374.664 310.889 366.991 310.889 359.742Z" fill="#DC8656"/>
<path d="M302.296 383.027C304.466 373.622 308.023 373.832 309.983 374.435C302.929 375.702 306.365 380.692 309.078 383.027C344.574 414.455 377.809 401.339 380.522 399.304C383.235 397.269 385.044 395.461 385.044 391.843C385.044 388.949 381.502 387.623 380.296 386.869L379.844 385.061C378.261 384.382 380.07 384.428 384.591 387.322C390.244 390.939 388.209 394.782 388.209 399.304C388.209 402.922 392.58 411.287 393.861 412.643C391.6 416.261 384.139 433.443 347.965 430.504C319.026 428.153 299.884 411.136 293.931 402.922C296.87 398.626 299.583 394.784 302.296 383.027Z" fill="#443D3B"/>
<ellipse cx="349.096" cy="294.402" rx="5.65218" ry="5.65218" fill="#1D1611"/>
<ellipse cx="400.191" cy="296.211" rx="5.65218" ry="5.65218" fill="#1D1611"/>
</g>
<rect x="165" y="165" width="370" height="370" rx="185" stroke="#C2C2C2" stroke-width="10"/>
</g>
<defs>
<filter id="filter0_d_524_7616" x="0" y="0" width="700" height="700" filterUnits="userSpaceOnUse" color-interpolation-filters="sRGB">
<feFlood flood-opacity="0" result="BackgroundImageFix"/>
<feColorMatrix in="SourceAlpha" type="matrix" values="0 0 0 0 0 0 0 0 0 0 0 0 0 0 0 0 0 0 127 0" result="hardAlpha"/>
<feOffset/>
<feGaussianBlur stdDeviation="80"/>
<feComposite in2="hardAlpha" operator="out"/>
<feColorMatrix type="matrix" values="0 0 0 0 0 0 0 0 0 0 0 0 0 0 0 0 0 0 0.1 0"/>
<feBlend mode="normal" in2="BackgroundImageFix" result="effect1_dropShadow_524_7616"/>
<feBlend mode="normal" in="SourceGraphic" in2="effect1_dropShadow_524_7616" result="shape"/>
</filter>
<clipPath id="clip0_524_7616">
<rect x="170" y="170" width="360" height="360" rx="180" fill="white"/>
</clipPath>
</defs>
</svg>
