<svg width="30" height="30" viewBox="0 0 30 30" fill="none" xmlns="http://www.w3.org/2000/svg">
<path d="M22.9688 0.00390625H7.03125C3.148 0.00390625 0 3.1519 0 7.03516V22.9727C0 26.8559 3.148 30.0039 7.03125 30.0039H22.9688C26.852 30.0039 30 26.8559 30 22.9727V7.03516C30 3.1519 26.852 0.00390625 22.9688 0.00390625Z" fill="white"/>
<path d="M22.9688 0.00390625H7.03125C3.148 0.00390625 0 3.1519 0 7.03516V22.9727C0 26.8559 3.148 30.0039 7.03125 30.0039H22.9688C26.852 30.0039 30 26.8559 30 22.9727V7.03516C30 3.1519 26.852 0.00390625 22.9688 0.00390625Z" fill="#0A66C2"/>
<path d="M21.6463 25.5139H25.0764C25.2007 25.5139 25.3199 25.4645 25.4078 25.3766C25.4957 25.2887 25.5451 25.1695 25.5451 25.0452L25.5469 17.7981C25.5469 14.0103 24.7307 11.0988 20.3041 11.0988C18.6214 11.0362 17.0346 11.9036 16.1783 13.352C16.1741 13.3591 16.1678 13.3645 16.1602 13.3676C16.1526 13.3707 16.1442 13.3712 16.1363 13.3691C16.1284 13.3669 16.1214 13.3623 16.1164 13.3558C16.1114 13.3493 16.1087 13.3414 16.1086 13.3332V11.9172C16.1086 11.7929 16.0592 11.6736 15.9713 11.5857C15.8834 11.4978 15.7642 11.4484 15.6398 11.4484H12.3847C12.2604 11.4484 12.1412 11.4978 12.0533 11.5857C11.9654 11.6736 11.916 11.7929 11.916 11.9172V25.0445C11.916 25.1688 11.9654 25.2881 12.0533 25.376C12.1412 25.4639 12.2604 25.5133 12.3847 25.5133H15.8146C15.9389 25.5133 16.0581 25.4639 16.146 25.376C16.2339 25.2881 16.2833 25.1688 16.2833 25.0445V18.5555C16.2833 16.7207 16.6314 14.9438 18.9061 14.9438C21.1485 14.9438 21.1775 17.0433 21.1775 18.6743V25.0451C21.1775 25.1694 21.2269 25.2887 21.3148 25.3766C21.4027 25.4645 21.522 25.5139 21.6463 25.5139ZM4.45312 6.99156C4.45312 8.38187 5.5977 9.52586 6.98813 9.52586C8.3782 9.52574 9.52207 8.38105 9.52207 6.99098C9.52184 5.6009 8.37785 4.45703 6.98766 4.45703C5.59711 4.45703 4.45312 5.60125 4.45312 6.99156ZM5.26863 25.5139H8.70305C8.82737 25.5139 8.9466 25.4645 9.0345 25.3766C9.12241 25.2887 9.1718 25.1694 9.1718 25.0451V11.9172C9.1718 11.7929 9.12241 11.6736 9.0345 11.5857C8.9466 11.4978 8.82737 11.4484 8.70305 11.4484H5.26863C5.14431 11.4484 5.02508 11.4978 4.93718 11.5857C4.84927 11.6736 4.79988 11.7929 4.79988 11.9172V25.0451C4.79988 25.1694 4.84927 25.2887 4.93718 25.3766C5.02508 25.4645 5.14431 25.5139 5.26863 25.5139Z" fill="white"/>
</svg>
