<svg width="30" height="30" viewBox="0 0 30 30" fill="none" xmlns="http://www.w3.org/2000/svg">
<path d="M4.28571 0.128906C1.92188 0.128906 0 2.03477 0 4.37891V25.6289C0 27.973 1.92188 29.8789 4.28571 29.8789H25.7143C28.0781 29.8789 30 27.973 30 25.6289V4.37891C30 2.03477 28.0781 0.128906 25.7143 0.128906H4.28571ZM24.1808 5.70703L17.2299 13.5828L25.4062 24.3008H19.0045L13.9955 17.7996L8.2567 24.3008H5.07589L12.5089 15.8738L4.66741 5.70703H11.2299L15.7634 11.6504L21 5.70703H24.1808ZM21.6496 22.4148L10.2723 7.49336H8.37723L19.8817 22.4148H21.6429H21.6496Z" fill="#FFF5F5"/>
</svg>
